<?xml version="1.0" encoding="UTF-8" standalone="no"?>
<!DOCTYPE svg PUBLIC "-//W3C//DTD SVG 1.1//EN"
        "http://www.w3.org/Graphics/SVG/1.1/DTD/svg11.dtd">
<!-- Generated by graphviz version 2.36.0 (20140111.2315)
 -->
<!-- Title: detangled Pages: 1 -->
<svg width="146pt" height="188pt"
     viewBox="0.00 0.00 146.00 188.00" xmlns="http://www.w3.org/2000/svg">
    <g id="graph0" class="graph" transform="scale(1 1) rotate(0) translate(4 184)">
        <title>detangled</title>
        <polygon fill="white" stroke="none" points="-4,4 -4,-184 142,-184 142,4 -4,4"/>
        <!-- Application -->
        <g id="node1" class="node"><title>Application</title>
            <ellipse fill="none" stroke="black" cx="69" cy="-162" rx="55.3436" ry="18"/>
            <text text-anchor="middle" x="69" y="-158.3" font-family="Arial, Helvetica, sans-serif" font-size="14.00">
                Application
            </text>
        </g>
        <!-- User Interface -->
        <g id="node2" class="node"><title>User Interface</title>
            <ellipse fill="none" stroke="black" cx="69" cy="-90" rx="69.3156" ry="18"/>
            <text text-anchor="middle" x="69" y="-86.3" font-family="Arial, Helvetica, sans-serif" font-size="14.00">
                User Interface
            </text>
        </g>
        <!-- Application&#45;&gt;User Interface -->
        <g id="edge1" class="edge"><title>Application&#45;&gt;User Interface</title>
            <path fill="none" stroke="black" d="M69,-143.697C69,-135.983 69,-126.712 69,-118.112"/>
            <polygon fill="black" stroke="black"
                     points="72.5001,-118.104 69,-108.104 65.5001,-118.104 72.5001,-118.104"/>
        </g>
        <!-- Database -->
        <g id="node3" class="node"><title>Database</title>
            <ellipse fill="none" stroke="black" cx="69" cy="-18" rx="50.0684" ry="18"/>
            <text text-anchor="middle" x="69" y="-14.3" font-family="Arial, Helvetica, sans-serif" font-size="14.00">
                Database
            </text>
        </g>
        <!-- User Interface&#45;&gt;Database -->
        <g id="edge2" class="edge"><title>User Interface&#45;&gt;Database</title>
            <path fill="none" stroke="black" d="M69,-71.6966C69,-63.9827 69,-54.7125 69,-46.1124"/>
            <polygon fill="black" stroke="black"
                     points="72.5001,-46.1043 69,-36.1043 65.5001,-46.1044 72.5001,-46.1043"/>
        </g>
    </g>
</svg>
