<?xml version="1.0" encoding="UTF-8" standalone="no"?>
<!DOCTYPE svg PUBLIC "-//W3C//DTD SVG 1.1//EN"
        "http://www.w3.org/Graphics/SVG/1.1/DTD/svg11.dtd">
<!-- Generated by graphviz version 2.38.0 (20140413.2041)
 -->
<!-- Title: detangled Pages: 1 -->
<svg xmlns:xlink="http://www.w3.org/1999/xlink" width="232pt"
     height="188pt" viewBox="0.00 0.00 231.94 188.00" xmlns="http://www.w3.org/2000/svg">
    <g id="graph0" class="graph" transform="scale(1 1) rotate(0) translate(4 184)">
        <title>detangled</title>
        <polygon fill="white" stroke="none" points="-4,4 -4,-184 227.944,-184 227.944,4 -4,4"/>
        <!-- Application -->
        <g id="node1" class="node"><title>Application</title>
            <ellipse fill="none" stroke="black" cx="120.43" cy="-162" rx="51.7174" ry="18"/>
            <text text-anchor="middle" x="120.43" y="-157.8" font-family="Times,serif" font-size="14.00">Application
            </text>
        </g>
        <!-- User Interface -->
        <g id="node3" class="node"><title>User Interface</title>
            <ellipse fill="none" stroke="black" cx="60.4299" cy="-90" rx="60.36" ry="18"/>
            <text text-anchor="middle" x="60.4299" y="-85.8" font-family="Times,serif" font-size="14.00">User
                Interface
            </text>
        </g>
        <!-- Application&#45;&gt;User Interface -->
        <g id="edge1" class="edge"><title>Application&#45;&gt;User Interface</title>
            <path fill="none" stroke="black" d="M106.211,-144.411C98.8468,-135.82 89.7094,-125.159 81.5392,-115.627"/>
            <polygon fill="black" stroke="black"
                     points="84.1292,-113.271 74.9638,-107.956 78.8144,-117.827 84.1292,-113.271"/>
        </g>
        <!-- Database -->
        <g id="node4" class="node"><title>Database</title>
            <ellipse fill="none" stroke="black" cx="181.43" cy="-90" rx="42.5283" ry="18"/>
            <text text-anchor="middle" x="181.43" y="-85.8" font-family="Times,serif" font-size="14.00">Database</text>
        </g>
        <!-- Application&#45;&gt;Database -->
        <g id="edge2" class="edge"><title>Application&#45;&gt;Database</title>
            <path fill="none" stroke="black" d="M134.886,-144.411C142.483,-135.693 151.936,-124.845 160.335,-115.208"/>
            <polygon fill="black" stroke="black"
                     points="163.146,-117.309 167.078,-107.47 157.869,-112.71 163.146,-117.309"/>
        </g>
        <!-- Contract -->
        <g id="node2" class="node"><title>Contract</title>
            <ellipse fill="none" stroke="black" cx="120.43" cy="-18" rx="40.6162" ry="18"/>
            <text text-anchor="middle" x="120.43" y="-13.8" font-family="Times,serif" font-size="14.00">Contract</text>
        </g>
        <!-- User Interface&#45;&gt;Contract -->
        <g id="edge3" class="edge"><title>User Interface&#45;&gt;Contract</title>
            <path fill="none" stroke="black" d="M74.6491,-72.411C82.2297,-63.567 91.6895,-52.5305 100.039,-42.7894"/>
            <polygon fill="black" stroke="black"
                     points="102.875,-44.8585 106.726,-34.9881 97.5605,-40.3029 102.875,-44.8585"/>
        </g>
        <!-- Database&#45;&gt;Contract -->
        <g id="edge4" class="edge"><title>Database&#45;&gt;Contract</title>
            <path fill="none" stroke="black" d="M167.282,-72.7646C159.506,-63.8414 149.717,-52.6078 141.1,-42.7194"/>
            <polygon fill="black" stroke="black"
                     points="143.71,-40.387 134.501,-35.1473 138.432,-44.9859 143.71,-40.387"/>
        </g>
    </g>
</svg>
