<?xml version="1.0" encoding="UTF-8" standalone="no"?>
<!DOCTYPE svg PUBLIC "-//W3C//DTD SVG 1.1//EN"
        "http://www.w3.org/Graphics/SVG/1.1/DTD/svg11.dtd">
<!-- Generated by graphviz version 2.36.0 (20140111.2315)
 -->
<!-- Title: detangled Pages: 1 -->
<svg width="265pt" height="188pt"
     viewBox="0.00 0.00 265.00 188.00" xmlns="http://www.w3.org/2000/svg">
    <g id="graph0" class="graph" transform="scale(1 1) rotate(0) translate(4 184)">
        <title>detangled</title>
        <polygon fill="white" stroke="none" points="-4,4 -4,-184 261,-184 261,4 -4,4"/>
        <!-- Application -->
        <g id="node1" class="node"><title>Application</title>
            <ellipse fill="none" stroke="black" cx="138" cy="-162" rx="55.3436" ry="18"/>
            <text text-anchor="middle" x="138" y="-158.3" font-family="Arial, Helvetica, sans-serif" font-size="14.00">
                Application
            </text>
        </g>
        <!-- User Interface -->
        <g id="node3" class="node"><title>User Interface</title>
            <ellipse fill="none" stroke="black" cx="69" cy="-90" rx="69.3156" ry="18"/>
            <text text-anchor="middle" x="69" y="-86.3" font-family="Arial, Helvetica, sans-serif" font-size="14.00">
                User Interface
            </text>
        </g>
        <!-- Application&#45;&gt;User Interface -->
        <g id="edge1" class="edge"><title>Application&#45;&gt;User Interface</title>
            <path fill="none" stroke="black" d="M121.997,-144.765C113.241,-135.882 102.228,-124.709 92.513,-114.854"/>
            <polygon fill="black" stroke="black"
                     points="94.9084,-112.298 85.3958,-107.633 89.9232,-117.212 94.9084,-112.298"/>
        </g>
        <!-- Database -->
        <g id="node4" class="node"><title>Database</title>
            <ellipse fill="none" stroke="black" cx="207" cy="-90" rx="50.0684" ry="18"/>
            <text text-anchor="middle" x="207" y="-86.3" font-family="Arial, Helvetica, sans-serif" font-size="14.00">
                Database
            </text>
        </g>
        <!-- Application&#45;&gt;Database -->
        <g id="edge2" class="edge"><title>Application&#45;&gt;Database</title>
            <path fill="none" stroke="black" d="M154.003,-144.765C162.886,-135.753 174.092,-124.385 183.909,-114.426"/>
            <polygon fill="black" stroke="black"
                     points="186.556,-116.726 191.083,-107.147 181.571,-111.812 186.556,-116.726"/>
        </g>
        <!-- Contract -->
        <g id="node2" class="node"><title>Contract</title>
            <ellipse fill="none" stroke="black" cx="138" cy="-18" rx="45.244" ry="18"/>
            <text text-anchor="middle" x="138" y="-14.3" font-family="Arial, Helvetica, sans-serif" font-size="14.00">
                Contract
            </text>
        </g>
        <!-- User Interface&#45;&gt;Contract -->
        <g id="edge3" class="edge"><title>User Interface&#45;&gt;Contract</title>
            <path fill="none" stroke="black" d="M85.352,-72.411C94.244,-63.3901 105.384,-52.0882 115.125,-42.2065"/>
            <polygon fill="black" stroke="black"
                     points="117.713,-44.5669 122.24,-34.9881 112.728,-39.6529 117.713,-44.5669"/>
        </g>
        <!-- Database&#45;&gt;Contract -->
        <g id="edge4" class="edge"><title>Database&#45;&gt;Contract</title>
            <path fill="none" stroke="black" d="M190.997,-72.7646C182.114,-63.7531 170.908,-52.3852 161.091,-42.4261"/>
            <polygon fill="black" stroke="black"
                     points="163.429,-39.8121 153.917,-35.1473 158.444,-44.7261 163.429,-39.8121"/>
        </g>
    </g>
</svg>
