<?xml version="1.0" encoding="UTF-8" standalone="no"?>
<!DOCTYPE svg PUBLIC "-//W3C//DTD SVG 1.1//EN"
        "http://www.w3.org/Graphics/SVG/1.1/DTD/svg11.dtd">
<!-- Generated by graphviz version 2.36.0 (20140111.2315)
 -->
<!-- Title: detangled Pages: 1 -->
<svg width="265pt" height="260pt"
     viewBox="0.00 0.00 265.00 260.00" xmlns="http://www.w3.org/2000/svg">
    <g id="graph0" class="graph" transform="scale(1 1) rotate(0) translate(4 256)">
        <title>detangled</title>
        <polygon fill="white" stroke="none" points="-4,4 -4,-256 261,-256 261,4 -4,4"/>
        <!-- Application -->
        <g id="node1" class="node"><title>Application</title>
            <ellipse fill="none" stroke="black" cx="138" cy="-234" rx="55.3436" ry="18"/>
            <text text-anchor="middle" x="138" y="-230.3" font-family="Arial, Helvetica, sans-serif" font-size="14.00">
                Application
            </text>
        </g>
        <!-- Wiring -->
        <g id="node2" class="node"><title>Wiring</title>
            <ellipse fill="none" stroke="black" cx="138" cy="-162" rx="37.0701" ry="18"/>
            <text text-anchor="middle" x="138" y="-158.3" font-family="Arial, Helvetica, sans-serif" font-size="14.00">
                Wiring
            </text>
        </g>
        <!-- Application&#45;&gt;Wiring -->
        <g id="edge1" class="edge"><title>Application&#45;&gt;Wiring</title>
            <path fill="none" stroke="black" d="M138,-215.697C138,-207.983 138,-198.712 138,-190.112"/>
            <polygon fill="black" stroke="black" points="141.5,-190.104 138,-180.104 134.5,-190.104 141.5,-190.104"/>
        </g>
        <!-- User Interface -->
        <g id="node4" class="node"><title>User Interface</title>
            <ellipse fill="none" stroke="black" cx="69" cy="-90" rx="69.3156" ry="18"/>
            <text text-anchor="middle" x="69" y="-86.3" font-family="Arial, Helvetica, sans-serif" font-size="14.00">
                User Interface
            </text>
        </g>
        <!-- Wiring&#45;&gt;User Interface -->
        <g id="edge2" class="edge"><title>Wiring&#45;&gt;User Interface</title>
            <path fill="none" stroke="black" d="M122.687,-145.465C113.954,-136.606 102.818,-125.308 92.9537,-115.301"/>
            <polygon fill="black" stroke="black"
                     points="95.2321,-112.627 85.7195,-107.962 90.2469,-117.541 95.2321,-112.627"/>
        </g>
        <!-- Database -->
        <g id="node5" class="node"><title>Database</title>
            <ellipse fill="none" stroke="black" cx="207" cy="-90" rx="50.0684" ry="18"/>
            <text text-anchor="middle" x="207" y="-86.3" font-family="Arial, Helvetica, sans-serif" font-size="14.00">
                Database
            </text>
        </g>
        <!-- Wiring&#45;&gt;Database -->
        <g id="edge3" class="edge"><title>Wiring&#45;&gt;Database</title>
            <path fill="none" stroke="black" d="M153.313,-145.465C162.172,-136.478 173.506,-124.98 183.474,-114.867"/>
            <polygon fill="black" stroke="black"
                     points="186.241,-117.046 190.768,-107.467 181.255,-112.132 186.241,-117.046"/>
        </g>
        <!-- Contract -->
        <g id="node3" class="node"><title>Contract</title>
            <ellipse fill="none" stroke="black" cx="138" cy="-18" rx="45.244" ry="18"/>
            <text text-anchor="middle" x="138" y="-14.3" font-family="Arial, Helvetica, sans-serif" font-size="14.00">
                Contract
            </text>
        </g>
        <!-- User Interface&#45;&gt;Contract -->
        <g id="edge4" class="edge"><title>User Interface&#45;&gt;Contract</title>
            <path fill="none" stroke="black" d="M85.352,-72.411C94.244,-63.3901 105.384,-52.0882 115.125,-42.2065"/>
            <polygon fill="black" stroke="black"
                     points="117.713,-44.5669 122.24,-34.9881 112.728,-39.6529 117.713,-44.5669"/>
        </g>
        <!-- Database&#45;&gt;Contract -->
        <g id="edge5" class="edge"><title>Database&#45;&gt;Contract</title>
            <path fill="none" stroke="black" d="M190.997,-72.7646C182.114,-63.7531 170.908,-52.3852 161.091,-42.4261"/>
            <polygon fill="black" stroke="black"
                     points="163.429,-39.8121 153.917,-35.1473 158.444,-44.7261 163.429,-39.8121"/>
        </g>
    </g>
</svg>
