<?xml version="1.0" encoding="UTF-8" standalone="no"?>
<!DOCTYPE svg PUBLIC "-//W3C//DTD SVG 1.1//EN"
        "http://www.w3.org/Graphics/SVG/1.1/DTD/svg11.dtd">
<!-- Generated by graphviz version 2.38.0 (20140413.2041)
 -->
<!-- Title: detangled Pages: 1 -->
<svg xmlns:xlink="http://www.w3.org/1999/xlink" width="232pt"
     height="260pt" viewBox="0.00 0.00 231.94 260.00" xmlns="http://www.w3.org/2000/svg">
    <g id="graph0" class="graph" transform="scale(1 1) rotate(0) translate(4 256)">
        <title>detangled</title>
        <polygon fill="white" stroke="none" points="-4,4 -4,-256 227.944,-256 227.944,4 -4,4"/>
        <!-- Application -->
        <g id="node1" class="node"><title>Application</title>
            <ellipse fill="none" stroke="black" cx="120.43" cy="-234" rx="51.7174" ry="18"/>
            <text text-anchor="middle" x="120.43" y="-229.8" font-family="Times,serif" font-size="14.00">Application
            </text>
        </g>
        <!-- Wiring -->
        <g id="node2" class="node"><title>Wiring</title>
            <ellipse fill="none" stroke="black" cx="120.43" cy="-162" rx="34.6138" ry="18"/>
            <text text-anchor="middle" x="120.43" y="-157.8" font-family="Times,serif" font-size="14.00">Wiring</text>
        </g>
        <!-- Application&#45;&gt;Wiring -->
        <g id="edge1" class="edge"><title>Application&#45;&gt;Wiring</title>
            <path fill="none" stroke="black" d="M120.43,-215.697C120.43,-207.983 120.43,-198.712 120.43,-190.112"/>
            <polygon fill="black" stroke="black"
                     points="123.93,-190.104 120.43,-180.104 116.93,-190.104 123.93,-190.104"/>
        </g>
        <!-- User Interface -->
        <g id="node4" class="node"><title>User Interface</title>
            <ellipse fill="none" stroke="black" cx="60.4299" cy="-90" rx="60.36" ry="18"/>
            <text text-anchor="middle" x="60.4299" y="-85.8" font-family="Times,serif" font-size="14.00">User
                Interface
            </text>
        </g>
        <!-- Wiring&#45;&gt;User Interface -->
        <g id="edge2" class="edge"><title>Wiring&#45;&gt;User Interface</title>
            <path fill="none" stroke="black" d="M106.815,-145.116C99.3597,-136.418 89.957,-125.448 81.5694,-115.663"/>
            <polygon fill="black" stroke="black"
                     points="83.993,-113.112 74.8277,-107.797 78.6782,-117.668 83.993,-113.112"/>
        </g>
        <!-- Database -->
        <g id="node5" class="node"><title>Database</title>
            <ellipse fill="none" stroke="black" cx="181.43" cy="-90" rx="42.5283" ry="18"/>
            <text text-anchor="middle" x="181.43" y="-85.8" font-family="Times,serif" font-size="14.00">Database</text>
        </g>
        <!-- Wiring&#45;&gt;Database -->
        <g id="edge3" class="edge"><title>Wiring&#45;&gt;Database</title>
            <path fill="none" stroke="black" d="M134.272,-145.116C142.038,-136.204 151.883,-124.906 160.566,-114.942"/>
            <polygon fill="black" stroke="black"
                     points="163.288,-117.146 167.22,-107.307 158.011,-112.547 163.288,-117.146"/>
        </g>
        <!-- Contract -->
        <g id="node3" class="node"><title>Contract</title>
            <ellipse fill="none" stroke="black" cx="120.43" cy="-18" rx="40.6162" ry="18"/>
            <text text-anchor="middle" x="120.43" y="-13.8" font-family="Times,serif" font-size="14.00">Contract</text>
        </g>
        <!-- User Interface&#45;&gt;Contract -->
        <g id="edge4" class="edge"><title>User Interface&#45;&gt;Contract</title>
            <path fill="none" stroke="black" d="M74.6491,-72.411C82.2297,-63.567 91.6895,-52.5305 100.039,-42.7894"/>
            <polygon fill="black" stroke="black"
                     points="102.875,-44.8585 106.726,-34.9881 97.5605,-40.3029 102.875,-44.8585"/>
        </g>
        <!-- Database&#45;&gt;Contract -->
        <g id="edge5" class="edge"><title>Database&#45;&gt;Contract</title>
            <path fill="none" stroke="black" d="M167.282,-72.7646C159.506,-63.8414 149.717,-52.6078 141.1,-42.7194"/>
            <polygon fill="black" stroke="black"
                     points="143.71,-40.387 134.501,-35.1473 138.432,-44.9859 143.71,-40.387"/>
        </g>
    </g>
</svg>
