<?xml version="1.0" encoding="UTF-8" standalone="no"?>
<!DOCTYPE svg PUBLIC "-//W3C//DTD SVG 1.1//EN"
        "http://www.w3.org/Graphics/SVG/1.1/DTD/svg11.dtd">
<!-- Generated by graphviz version 2.40.1 (20161225.0304)
 -->
<!-- Title: detangled Pages: 1 -->
<svg width="139pt" height="116pt"
     viewBox="0.00 0.00 139.22 116.00" xmlns="http://www.w3.org/2000/svg">
    <g id="graph0" class="graph" transform="scale(1 1) rotate(0) translate(4 112)">
        <title>detangled</title>
        <polygon fill="#ffffff" stroke="transparent" points="-4,4 -4,-112 135.2233,-112 135.2233,4 -4,4"/>
        <!-- interface -->
        <g id="node1" class="node">
            <title>interface</title>
            <ellipse fill="none" stroke="#000000" cx="65.6117" cy="-90" rx="41.0661" ry="18"/>
            <text text-anchor="middle" x="65.6117" y="-85.8" font-family="Times,serif" font-size="14.00" fill="#000000">
                interface
            </text>
        </g>
        <!-- implementation -->
        <g id="node2" class="node">
            <title>implementation</title>
            <ellipse fill="none" stroke="#000000" cx="65.6117" cy="-18" rx="65.7235" ry="18"/>
            <text text-anchor="middle" x="65.6117" y="-13.8" font-family="Times,serif" font-size="14.00" fill="#000000">
                implementation
            </text>
        </g>
        <!-- interface&#45;&gt;implementation -->
        <g id="edge2" class="edge">
            <title>interface&#45;&gt;implementation</title>
            <path fill="none" stroke="#000000" d="M59.6593,-71.8314C58.9088,-64.131 58.6879,-54.9743 58.9966,-46.4166"/>
            <polygon fill="#000000" stroke="#000000"
                     points="62.4909,-46.6161 59.6357,-36.4133 55.5051,-46.1697 62.4909,-46.6161"/>
        </g>
        <!-- implementation&#45;&gt;interface -->
        <g id="edge1" class="edge">
            <title>implementation&#45;&gt;interface</title>
            <path fill="none" stroke="#000000"
                  d="M71.5877,-36.4133C72.3188,-44.0593 72.5319,-53.1084 72.2271,-61.5726"/>
            <polygon fill="#000000" stroke="#000000"
                     points="68.7164,-61.6264 71.5641,-71.8314 75.7019,-62.078 68.7164,-61.6264"/>
        </g>
    </g>
</svg>
