<?xml version="1.0" encoding="UTF-8" standalone="no"?>
<!DOCTYPE svg PUBLIC "-//W3C//DTD SVG 1.1//EN"
        "http://www.w3.org/Graphics/SVG/1.1/DTD/svg11.dtd">
<!-- Generated by graphviz version 2.40.1 (20161225.0304)
 -->
<!-- Title: detangled Pages: 1 -->
<svg width="139pt" height="188pt"
     viewBox="0.00 0.00 139.22 188.00" xmlns="http://www.w3.org/2000/svg">
    <g id="graph0" class="graph" transform="scale(1 1) rotate(0) translate(4 184)">
        <title>detangled</title>
        <polygon fill="#ffffff" stroke="transparent" points="-4,4 -4,-184 135.2233,-184 135.2233,4 -4,4"/>
        <!-- interface -->
        <g id="node1" class="node">
            <title>interface</title>
            <ellipse fill="none" stroke="#000000" cx="65.6117" cy="-18" rx="41.0661" ry="18"/>
            <text text-anchor="middle" x="65.6117" y="-13.8" font-family="Times,serif" font-size="14.00" fill="#000000">
                interface
            </text>
        </g>
        <!-- implementation -->
        <g id="node2" class="node">
            <title>implementation</title>
            <ellipse fill="none" stroke="#000000" cx="65.6117" cy="-90" rx="65.7235" ry="18"/>
            <text text-anchor="middle" x="65.6117" y="-85.8" font-family="Times,serif" font-size="14.00" fill="#000000">
                implementation
            </text>
        </g>
        <!-- implementation&#45;&gt;interface -->
        <g id="edge1" class="edge">
            <title>implementation&#45;&gt;interface</title>
            <path fill="none" stroke="#000000" d="M65.6117,-71.8314C65.6117,-64.131 65.6117,-54.9743 65.6117,-46.4166"/>
            <polygon fill="#000000" stroke="#000000"
                     points="69.1118,-46.4132 65.6117,-36.4133 62.1118,-46.4133 69.1118,-46.4132"/>
        </g>
        <!-- factory -->
        <g id="node3" class="node">
            <title>factory</title>
            <ellipse fill="none" stroke="#000000" cx="65.6117" cy="-162" rx="35.2956" ry="18"/>
            <text text-anchor="middle" x="65.6117" y="-157.8" font-family="Times,serif" font-size="14.00"
                  fill="#000000">factory
            </text>
        </g>
        <!-- factory&#45;&gt;implementation -->
        <g id="edge2" class="edge">
            <title>factory&#45;&gt;implementation</title>
            <path fill="none" stroke="#000000"
                  d="M65.6117,-143.8314C65.6117,-136.131 65.6117,-126.9743 65.6117,-118.4166"/>
            <polygon fill="#000000" stroke="#000000"
                     points="69.1118,-118.4132 65.6117,-108.4133 62.1118,-118.4133 69.1118,-118.4132"/>
        </g>
    </g>
</svg>
