<?xml version="1.0" encoding="UTF-8" standalone="no"?>
<!DOCTYPE svg PUBLIC "-//W3C//DTD SVG 1.1//EN"
        "http://www.w3.org/Graphics/SVG/1.1/DTD/svg11.dtd">
<!-- Generated by graphviz version 2.40.1 (20161225.0304)
 -->
<!-- Title: detangled Pages: 1 -->
<svg width="97pt" height="188pt"
     viewBox="0.00 0.00 96.97 188.00" xmlns="http://www.w3.org/2000/svg">
    <g id="graph0" class="graph" transform="scale(1 1) rotate(0) translate(4 184)">
        <title>detangled</title>
        <polygon fill="#ffffff" stroke="transparent" points="-4,4 -4,-184 92.9664,-184 92.9664,4 -4,4"/>
        <!-- controller -->
        <g id="node1" class="node">
            <title>controller</title>
            <ellipse fill="none" stroke="#000000" cx="44.4832" cy="-162" rx="44.4664" ry="18"/>
            <text text-anchor="middle" x="44.4832" y="-157.8" font-family="Times,serif" font-size="14.00"
                  fill="#000000">controller
            </text>
        </g>
        <!-- service -->
        <g id="node2" class="node">
            <title>service</title>
            <ellipse fill="none" stroke="#000000" cx="44.4832" cy="-90" rx="35.2956" ry="18"/>
            <text text-anchor="middle" x="44.4832" y="-85.8" font-family="Times,serif" font-size="14.00" fill="#000000">
                service
            </text>
        </g>
        <!-- controller&#45;&gt;service -->
        <g id="edge1" class="edge">
            <title>controller&#45;&gt;service</title>
            <path fill="none" stroke="#000000"
                  d="M38.5308,-143.8314C37.7688,-136.0125 37.5528,-126.6923 37.8827,-118.0221"/>
            <polygon fill="#000000" stroke="#000000"
                     points="41.3836,-118.1239 38.5559,-107.9134 34.3991,-117.6587 41.3836,-118.1239"/>
        </g>
        <!-- service&#45;&gt;controller -->
        <g id="edge3" class="edge">
            <title>service&#45;&gt;controller</title>
            <path fill="none" stroke="#000000"
                  d="M50.4105,-107.9134C51.1844,-115.6993 51.4123,-125.01 51.0943,-133.6941"/>
            <polygon fill="#000000" stroke="#000000"
                     points="47.5914,-133.6254 50.4356,-143.8314 54.5767,-134.0794 47.5914,-133.6254"/>
        </g>
        <!-- database -->
        <g id="node3" class="node">
            <title>database</title>
            <ellipse fill="none" stroke="#000000" cx="44.4832" cy="-18" rx="40.5989" ry="18"/>
            <text text-anchor="middle" x="44.4832" y="-13.8" font-family="Times,serif" font-size="14.00" fill="#000000">
                database
            </text>
        </g>
        <!-- service&#45;&gt;database -->
        <g id="edge2" class="edge">
            <title>service&#45;&gt;database</title>
            <path fill="none" stroke="#000000" d="M38.5675,-72.2022C37.7777,-64.3271 37.5487,-54.875 37.8803,-46.0852"/>
            <polygon fill="#000000" stroke="#000000"
                     points="41.3902,-46.0532 38.563,-35.8425 34.4056,-45.5876 41.3902,-46.0532"/>
        </g>
        <!-- database&#45;&gt;service -->
        <g id="edge4" class="edge">
            <title>database&#45;&gt;service</title>
            <path fill="none" stroke="#000000" d="M50.4034,-35.8425C51.191,-43.7236 51.418,-53.1774 51.0842,-61.9647"/>
            <polygon fill="#000000" stroke="#000000"
                     points="47.5747,-61.9908 50.3989,-72.2022 54.5591,-62.4583 47.5747,-61.9908"/>
        </g>
    </g>
</svg>
