<?xml version="1.0" encoding="UTF-8" standalone="no"?>
<!DOCTYPE svg PUBLIC "-//W3C//DTD SVG 1.1//EN"
        "http://www.w3.org/Graphics/SVG/1.1/DTD/svg11.dtd">
<!-- Generated by graphviz version 2.40.1 (20161225.0304)
 -->
<!-- Title: detangled Pages: 1 -->
<svg width="97pt" height="188pt"
     viewBox="0.00 0.00 96.97 188.00" xmlns="http://www.w3.org/2000/svg">
    <g id="graph0" class="graph" transform="scale(1 1) rotate(0) translate(4 184)">
        <title>detangled</title>
        <polygon fill="#ffffff" stroke="transparent" points="-4,4 -4,-184 92.9664,-184 92.9664,4 -4,4"/>
        <!-- controller -->
        <g id="node1" class="node">
            <title>controller</title>
            <ellipse fill="none" stroke="#000000" cx="44.4832" cy="-162" rx="44.4664" ry="18"/>
            <text text-anchor="middle" x="44.4832" y="-157.8" font-family="Times,serif" font-size="14.00"
                  fill="#000000">controller
            </text>
        </g>
        <!-- service -->
        <g id="node2" class="node">
            <title>service</title>
            <ellipse fill="none" stroke="#000000" cx="44.4832" cy="-90" rx="35.2956" ry="18"/>
            <text text-anchor="middle" x="44.4832" y="-85.8" font-family="Times,serif" font-size="14.00" fill="#000000">
                service
            </text>
        </g>
        <!-- controller&#45;&gt;service -->
        <g id="edge1" class="edge">
            <title>controller&#45;&gt;service</title>
            <path fill="none" stroke="#000000"
                  d="M44.4832,-143.8314C44.4832,-136.131 44.4832,-126.9743 44.4832,-118.4166"/>
            <polygon fill="#000000" stroke="#000000"
                     points="47.9833,-118.4132 44.4832,-108.4133 40.9833,-118.4133 47.9833,-118.4132"/>
        </g>
        <!-- database -->
        <g id="node3" class="node">
            <title>database</title>
            <ellipse fill="none" stroke="#000000" cx="44.4832" cy="-18" rx="40.5989" ry="18"/>
            <text text-anchor="middle" x="44.4832" y="-13.8" font-family="Times,serif" font-size="14.00" fill="#000000">
                database
            </text>
        </g>
        <!-- service&#45;&gt;database -->
        <g id="edge2" class="edge">
            <title>service&#45;&gt;database</title>
            <path fill="none" stroke="#000000" d="M44.4832,-71.8314C44.4832,-64.131 44.4832,-54.9743 44.4832,-46.4166"/>
            <polygon fill="#000000" stroke="#000000"
                     points="47.9833,-46.4132 44.4832,-36.4133 40.9833,-46.4133 47.9833,-46.4132"/>
        </g>
    </g>
</svg>
