<?xml version="1.0" encoding="UTF-8" standalone="no"?>
<!DOCTYPE svg PUBLIC "-//W3C//DTD SVG 1.1//EN"
        "http://www.w3.org/Graphics/SVG/1.1/DTD/svg11.dtd">
<!-- Generated by graphviz version 2.40.1 (20161225.0304)
 -->
<!-- Title: detangled Pages: 1 -->
<svg width="156pt" height="188pt"
     viewBox="0.00 0.00 155.70 188.00" xmlns="http://www.w3.org/2000/svg">
    <g id="graph0" class="graph" transform="scale(1 1) rotate(0) translate(4 184)">
        <title>detangled</title>
        <polygon fill="#ffffff" stroke="transparent" points="-4,4 -4,-184 151.6969,-184 151.6969,4 -4,4"/>
        <!-- utility -->
        <g id="node1" class="node">
            <title>utility</title>
            <ellipse fill="none" stroke="#000000" cx="71.1475" cy="-162" rx="31.4723" ry="18"/>
            <text text-anchor="middle" x="71.1475" y="-157.8" font-family="Times,serif" font-size="14.00"
                  fill="#000000">utility
            </text>
        </g>
        <!-- service -->
        <g id="node2" class="node">
            <title>service</title>
            <ellipse fill="none" stroke="#000000" cx="35.1475" cy="-90" rx="35.2956" ry="18"/>
            <text text-anchor="middle" x="35.1475" y="-85.8" font-family="Times,serif" font-size="14.00" fill="#000000">
                service
            </text>
        </g>
        <!-- utility&#45;&gt;service -->
        <g id="edge2" class="edge">
            <title>utility&#45;&gt;service</title>
            <path fill="none" stroke="#000000"
                  d="M57.2177,-145.6621C52.1282,-137.3478 46.6887,-127.0152 42.3257,-117.5177"/>
            <polygon fill="#000000" stroke="#000000"
                     points="45.41,-115.832 38.2286,-108.0423 38.9849,-118.6102 45.41,-115.832"/>
        </g>
        <!-- database -->
        <g id="node3" class="node">
            <title>database</title>
            <ellipse fill="none" stroke="#000000" cx="107.1475" cy="-18" rx="40.5989" ry="18"/>
            <text text-anchor="middle" x="107.1475" y="-13.8" font-family="Times,serif" font-size="14.00"
                  fill="#000000">database
            </text>
        </g>
        <!-- utility&#45;&gt;database -->
        <g id="edge3" class="edge">
            <title>utility&#45;&gt;database</title>
            <path fill="none" stroke="#000000"
                  d="M71.0337,-143.7623C74.7506,-118.958 85.6406,-74.3758 94.8322,-45.5009"/>
            <polygon fill="#000000" stroke="#000000"
                     points="98.2776,-46.2329 98.1253,-35.6392 91.638,-44.0158 98.2776,-46.2329"/>
        </g>
        <!-- service&#45;&gt;utility -->
        <g id="edge4" class="edge">
            <title>service&#45;&gt;utility</title>
            <path fill="none" stroke="#000000"
                  d="M49.436,-106.9263C54.4336,-115.1567 59.7347,-125.2572 64.0007,-134.5508"/>
            <polygon fill="#000000" stroke="#000000"
                     points="60.8327,-136.043 68.0155,-143.8314 67.2573,-133.2637 60.8327,-136.043"/>
        </g>
        <!-- service&#45;&gt;database -->
        <g id="edge1" class="edge">
            <title>service&#45;&gt;database</title>
            <path fill="none" stroke="#000000" d="M51.4854,-73.6621C60.8337,-64.3138 72.7336,-52.4139 83.129,-42.0185"/>
            <polygon fill="#000000" stroke="#000000"
                     points="85.7783,-44.3189 90.3746,-34.7729 80.8286,-39.3691 85.7783,-44.3189"/>
        </g>
        <!-- database&#45;&gt;utility -->
        <g id="edge5" class="edge">
            <title>database&#45;&gt;utility</title>
            <path fill="none" stroke="#000000"
                  d="M107.246,-36.3394C103.5018,-61.2488 92.5671,-105.9692 83.3684,-134.7954"/>
            <polygon fill="#000000" stroke="#000000"
                     points="79.9315,-134.0364 80.0744,-144.6302 86.5691,-136.2595 79.9315,-134.0364"/>
        </g>
    </g>
</svg>
