<?xml version="1.0" encoding="UTF-8" standalone="no"?>
<!DOCTYPE svg PUBLIC "-//W3C//DTD SVG 1.1//EN"
        "http://www.w3.org/Graphics/SVG/1.1/DTD/svg11.dtd">
<!-- Generated by graphviz version 2.40.1 (20161225.0304)
 -->
<!-- Title: detangled Pages: 1 -->
<svg width="147pt" height="260pt"
     viewBox="0.00 0.00 146.70 260.00" xmlns="http://www.w3.org/2000/svg">
    <g id="graph0" class="graph" transform="scale(1 1) rotate(0) translate(4 256)">
        <title>detangled</title>
        <polygon fill="#ffffff" stroke="transparent" points="-4,4 -4,-256 142.6969,-256 142.6969,4 -4,4"/>
        <!-- controller -->
        <g id="node1" class="node">
            <title>controller</title>
            <ellipse fill="none" stroke="#000000" cx="66.1475" cy="-234" rx="44.4664" ry="18"/>
            <text text-anchor="middle" x="66.1475" y="-229.8" font-family="Times,serif" font-size="14.00"
                  fill="#000000">controller
            </text>
        </g>
        <!-- service -->
        <g id="node3" class="node">
            <title>service</title>
            <ellipse fill="none" stroke="#000000" cx="35.1475" cy="-162" rx="35.2956" ry="18"/>
            <text text-anchor="middle" x="35.1475" y="-157.8" font-family="Times,serif" font-size="14.00"
                  fill="#000000">service
            </text>
        </g>
        <!-- controller&#45;&gt;service -->
        <g id="edge2" class="edge">
            <title>controller&#45;&gt;service</title>
            <path fill="none" stroke="#000000"
                  d="M58.4846,-216.2022C54.9558,-208.0064 50.6916,-198.1024 46.7787,-189.0145"/>
            <polygon fill="#000000" stroke="#000000"
                     points="49.8916,-187.3938 42.7222,-179.593 43.4622,-190.162 49.8916,-187.3938"/>
        </g>
        <!-- database -->
        <g id="node4" class="node">
            <title>database</title>
            <ellipse fill="none" stroke="#000000" cx="98.1475" cy="-90" rx="40.5989" ry="18"/>
            <text text-anchor="middle" x="98.1475" y="-85.8" font-family="Times,serif" font-size="14.00" fill="#000000">
                database
            </text>
        </g>
        <!-- controller&#45;&gt;database -->
        <g id="edge3" class="edge">
            <title>controller&#45;&gt;database</title>
            <path fill="none" stroke="#000000"
                  d="M70.6079,-216.0296C73.178,-205.5395 76.428,-192.0395 79.1475,-180 83.8315,-159.2632 88.7819,-135.7556 92.455,-117.9667"/>
            <polygon fill="#000000" stroke="#000000"
                     points="95.9263,-118.462 94.5107,-107.9621 89.0696,-117.053 95.9263,-118.462"/>
        </g>
        <!-- constants -->
        <g id="node2" class="node">
            <title>constants</title>
            <ellipse fill="none" stroke="#000000" cx="63.1475" cy="-18" rx="43.0387" ry="18"/>
            <text text-anchor="middle" x="63.1475" y="-13.8" font-family="Times,serif" font-size="14.00" fill="#000000">
                constants
            </text>
        </g>
        <!-- service&#45;&gt;constants -->
        <g id="edge4" class="edge">
            <title>service&#45;&gt;constants</title>
            <path fill="none" stroke="#000000"
                  d="M37.0685,-143.9518C39.1721,-125.6956 42.9511,-96.7192 48.1475,-72 49.969,-63.3351 52.3909,-54.0071 54.7562,-45.5822"/>
            <polygon fill="#000000" stroke="#000000"
                     points="58.1521,-46.4378 57.5691,-35.859 51.4278,-44.4924 58.1521,-46.4378"/>
        </g>
        <!-- service&#45;&gt;database -->
        <g id="edge1" class="edge">
            <title>service&#45;&gt;database</title>
            <path fill="none" stroke="#000000"
                  d="M49.7593,-145.3008C57.6755,-136.2537 67.612,-124.8977 76.4179,-114.8338"/>
            <polygon fill="#000000" stroke="#000000"
                     points="79.2264,-116.9392 83.1774,-107.1086 73.9583,-112.3297 79.2264,-116.9392"/>
        </g>
        <!-- database&#45;&gt;constants -->
        <g id="edge5" class="edge">
            <title>database&#45;&gt;constants</title>
            <path fill="none" stroke="#000000" d="M89.4958,-72.2022C85.4993,-63.981 80.6674,-54.041 76.2385,-44.9301"/>
            <polygon fill="#000000" stroke="#000000"
                     points="79.3407,-43.306 71.8209,-35.8425 73.0451,-46.3664 79.3407,-43.306"/>
        </g>
    </g>
</svg>
