<?xml version="1.0" encoding="UTF-8" standalone="no"?>
<!DOCTYPE svg PUBLIC "-//W3C//DTD SVG 1.1//EN"
        "http://www.w3.org/Graphics/SVG/1.1/DTD/svg11.dtd">
<!-- Generated by graphviz version 2.40.1 (20161225.0304)
 -->
<!-- Title: detangled Pages: 1 -->
<svg width="89pt" height="116pt"
     viewBox="0.00 0.00 89.10 116.00" xmlns="http://www.w3.org/2000/svg">
    <g id="graph0" class="graph" transform="scale(1 1) rotate(0) translate(4 112)">
        <title>detangled</title>
        <polygon fill="#ffffff" stroke="transparent" points="-4,4 -4,-112 85.0988,-112 85.0988,4 -4,4"/>
        <!-- database -->
        <g id="node1" class="node">
            <title>database</title>
            <ellipse fill="none" stroke="#000000" cx="40.5494" cy="-90" rx="40.5989" ry="18"/>
            <text text-anchor="middle" x="40.5494" y="-85.8" font-family="Times,serif" font-size="14.00" fill="#000000">
                database
            </text>
        </g>
        <!-- service -->
        <g id="node2" class="node">
            <title>service</title>
            <ellipse fill="none" stroke="#000000" cx="40.5494" cy="-18" rx="35.2956" ry="18"/>
            <text text-anchor="middle" x="40.5494" y="-13.8" font-family="Times,serif" font-size="14.00" fill="#000000">
                service
            </text>
        </g>
        <!-- database&#45;&gt;service -->
        <g id="edge2" class="edge">
            <title>database&#45;&gt;service</title>
            <path fill="none" stroke="#000000" d="M34.597,-71.8314C33.8351,-64.0125 33.619,-54.6923 33.9489,-46.0221"/>
            <polygon fill="#000000" stroke="#000000"
                     points="37.4498,-46.1239 34.6221,-35.9134 30.4653,-45.6587 37.4498,-46.1239"/>
        </g>
        <!-- service&#45;&gt;database -->
        <g id="edge1" class="edge">
            <title>service&#45;&gt;database</title>
            <path fill="none" stroke="#000000" d="M46.4767,-35.9134C47.2506,-43.6993 47.4785,-53.01 47.1605,-61.6941"/>
            <polygon fill="#000000" stroke="#000000"
                     points="43.6577,-61.6254 46.5018,-71.8314 50.6429,-62.0794 43.6577,-61.6254"/>
        </g>
    </g>
</svg>
