<?xml version="1.0" encoding="UTF-8" standalone="no"?>
<!DOCTYPE svg PUBLIC "-//W3C//DTD SVG 1.1//EN"
        "http://www.w3.org/Graphics/SVG/1.1/DTD/svg11.dtd">
<!-- Generated by graphviz version 2.40.1 (20161225.0304)
 -->
<!-- Title: detangled Pages: 1 -->
<svg width="118pt" height="188pt"
     viewBox="0.00 0.00 117.70 188.00" xmlns="http://www.w3.org/2000/svg">
    <g id="graph0" class="graph" transform="scale(1 1) rotate(0) translate(4 184)">
        <title>detangled</title>
        <polygon fill="#ffffff" stroke="transparent" points="-4,4 -4,-184 113.6969,-184 113.6969,4 -4,4"/>
        <!-- database -->
        <g id="node1" class="node">
            <title>database</title>
            <ellipse fill="none" stroke="#000000" cx="40.5494" cy="-90" rx="40.5989" ry="18"/>
            <text text-anchor="middle" x="40.5494" y="-85.8" font-family="Times,serif" font-size="14.00" fill="#000000">
                database
            </text>
        </g>
        <!-- rules -->
        <g id="node3" class="node">
            <title>rules</title>
            <ellipse fill="none" stroke="#000000" cx="74.5494" cy="-18" rx="27.0958" ry="18"/>
            <text text-anchor="middle" x="74.5494" y="-13.8" font-family="Times,serif" font-size="14.00" fill="#000000">
                rules
            </text>
        </g>
        <!-- database&#45;&gt;rules -->
        <g id="edge2" class="edge">
            <title>database&#45;&gt;rules</title>
            <path fill="none" stroke="#000000"
                  d="M48.9539,-72.2022C52.8946,-63.8574 57.6714,-53.7417 62.0262,-44.5197"/>
            <polygon fill="#000000" stroke="#000000"
                     points="65.2537,-45.8816 66.3589,-35.3446 58.9239,-42.8925 65.2537,-45.8816"/>
        </g>
        <!-- service -->
        <g id="node2" class="node">
            <title>service</title>
            <ellipse fill="none" stroke="#000000" cx="74.5494" cy="-162" rx="35.2956" ry="18"/>
            <text text-anchor="middle" x="74.5494" y="-157.8" font-family="Times,serif" font-size="14.00"
                  fill="#000000">service
            </text>
        </g>
        <!-- service&#45;&gt;database -->
        <g id="edge1" class="edge">
            <title>service&#45;&gt;database</title>
            <path fill="none" stroke="#000000"
                  d="M66.1449,-144.2022C62.2627,-135.981 57.5688,-126.041 53.2664,-116.9301"/>
            <polygon fill="#000000" stroke="#000000"
                     points="56.4101,-115.3905 48.9751,-107.8425 50.0803,-118.3796 56.4101,-115.3905"/>
        </g>
        <!-- service&#45;&gt;rules -->
        <g id="edge3" class="edge">
            <title>service&#45;&gt;rules</title>
            <path fill="none" stroke="#000000"
                  d="M81.2021,-144.2896C84.753,-133.8861 88.753,-120.3861 90.5494,-108 92.8459,-92.1657 92.8459,-87.8343 90.5494,-72 89.2723,-63.1943 86.8814,-53.8255 84.3299,-45.4067"/>
            <polygon fill="#000000" stroke="#000000"
                     points="87.6032,-44.153 81.2021,-35.7104 80.9412,-46.3021 87.6032,-44.153"/>
        </g>
    </g>
</svg>
